<svg xmlns="http://www.w3.org/2000/svg" viewBox="0 0 1200 800" role="img" aria-label="Renkumi workflow pipeline">
  <defs>
    <linearGradient id="workflow-bg" x1="0" x2="1" y1="0" y2="1">
      <stop offset="0" stop-color="#fffaf4"/>
      <stop offset=".55" stop-color="#f7fbff"/>
      <stop offset="1" stop-color="#f2fff9"/>
    </linearGradient>
    <linearGradient id="workflow-dark" x1="0" x2="1" y1="0" y2="1">
      <stop offset="0" stop-color="#172033"/>
      <stop offset="1" stop-color="#07090f"/>
    </linearGradient>
    <linearGradient id="workflow-accent" x1="0" x2="1">
      <stop offset="0" stop-color="#7d5cf7"/>
      <stop offset=".54" stop-color="#21c7a8"/>
      <stop offset="1" stop-color="#f7b84b"/>
    </linearGradient>
    <filter id="workflow-shadow" x="-14%" y="-18%" width="128%" height="136%" filterUnits="objectBoundingBox">
      <feDropShadow dx="0" dy="22" stdDeviation="24" flood-color="#152033" flood-opacity=".14"/>
    </filter>
    <filter id="workflow-float" x="-16%" y="-24%" width="132%" height="148%" filterUnits="objectBoundingBox">
      <feDropShadow dx="0" dy="16" stdDeviation="16" flood-color="#152033" flood-opacity=".12"/>
    </filter>
    <pattern id="workflow-grid" width="40" height="40" patternUnits="userSpaceOnUse">
      <path d="M40 0H0v40" fill="none" stroke="#cbd5e1" stroke-width="1" opacity=".42"/>
    </pattern>
  </defs>
  <rect width="1200" height="800" fill="url(#workflow-bg)"/>
  <rect width="1200" height="800" fill="url(#workflow-grid)" opacity=".48"/>
  <circle cx="1052" cy="146" r="124" fill="#7d5cf7" opacity=".12"/>
  <circle cx="164" cy="658" r="160" fill="#21c7a8" opacity=".12"/>

  <rect x="72" y="74" width="1056" height="652" rx="34" fill="#fff" filter="url(#workflow-shadow)"/>
  <rect x="72" y="74" width="230" height="652" rx="34" fill="url(#workflow-dark)"/>
  <path d="M302 74v652H268V74z" fill="url(#workflow-dark)"/>
  <text x="122" y="150" fill="#fff" font-family="Inter, Arial, sans-serif" font-size="35" font-weight="850">Renkumi</text>
  <text x="122" y="184" fill="#94a3b8" font-family="Inter, Arial, sans-serif" font-size="15" font-weight="700">VIDEO OPS</text>
  <rect x="122" y="232" width="128" height="34" rx="17" fill="#fff" opacity=".11"/>
  <rect x="122" y="290" width="102" height="12" rx="6" fill="#7d5cf7"/>
  <rect x="122" y="336" width="132" height="12" rx="6" fill="#fff" opacity=".42"/>
  <rect x="122" y="382" width="112" height="12" rx="6" fill="#fff" opacity=".28"/>
  <rect x="122" y="594" width="122" height="44" rx="15" fill="#21c7a8"/>
  <path d="M158 616h28M172 602v28" stroke="#fff" stroke-width="6" stroke-linecap="round"/>

  <text x="354" y="146" fill="#0f1728" font-family="Inter, Arial, sans-serif" font-size="30" font-weight="850">From brief to reusable video</text>
  <rect x="354" y="170" width="392" height="13" rx="6.5" fill="#cbd5e1"/>

  <path d="M418 278H934" stroke="#cbd5e1" stroke-width="8" stroke-linecap="round"/>
  <path d="M418 278H748" stroke="url(#workflow-accent)" stroke-width="8" stroke-linecap="round"/>
  <g font-family="Inter, Arial, sans-serif">
    <circle cx="418" cy="278" r="34" fill="#7d5cf7" filter="url(#workflow-float)"/>
    <text x="418" y="287" text-anchor="middle" fill="#fff" font-size="24" font-weight="850">1</text>
    <circle cx="590" cy="278" r="34" fill="#21c7a8" filter="url(#workflow-float)"/>
    <text x="590" y="287" text-anchor="middle" fill="#fff" font-size="24" font-weight="850">2</text>
    <circle cx="762" cy="278" r="34" fill="#f7b84b" filter="url(#workflow-float)"/>
    <text x="762" y="287" text-anchor="middle" fill="#0f1728" font-size="24" font-weight="850">3</text>
    <circle cx="934" cy="278" r="34" fill="#f07955" filter="url(#workflow-float)"/>
    <text x="934" y="287" text-anchor="middle" fill="#fff" font-size="24" font-weight="850">4</text>
  </g>

  <g font-family="Inter, Arial, sans-serif">
    <rect x="350" y="350" width="178" height="220" rx="24" fill="#f8fafc"/>
    <text x="382" y="402" fill="#0f1728" font-size="22" font-weight="850">Brief</text>
    <rect x="382" y="432" width="104" height="12" rx="6" fill="#7d5cf7"/>
    <rect x="382" y="462" width="116" height="10" rx="5" fill="#94a3b8"/>
    <rect x="382" y="488" width="82" height="10" rx="5" fill="#cbd5e1"/>
    <rect x="382" y="526" width="74" height="26" rx="13" fill="#fff" stroke="#e2e8f0"/>

    <rect x="560" y="350" width="178" height="220" rx="24" fill="#f8fafc"/>
    <text x="592" y="402" fill="#0f1728" font-size="22" font-weight="850">AI scenes</text>
    <rect x="592" y="432" width="58" height="46" rx="13" fill="#21c7a8"/>
    <rect x="664" y="432" width="42" height="46" rx="13" fill="#8fd8ea"/>
    <rect x="592" y="500" width="98" height="11" rx="5.5" fill="#0f1728"/>
    <rect x="592" y="527" width="76" height="10" rx="5" fill="#94a3b8"/>

    <rect x="770" y="350" width="178" height="220" rx="24" fill="#f8fafc"/>
    <text x="802" y="402" fill="#0f1728" font-size="22" font-weight="850">Render</text>
    <rect x="802" y="430" width="114" height="70" rx="15" fill="#0f1728"/>
    <path d="M849 452v26l24-13z" fill="#fff"/>
    <rect x="802" y="526" width="86" height="12" rx="6" fill="#f7b84b"/>

    <rect x="980" y="350" width="100" height="220" rx="24" fill="#f8fafc"/>
    <text x="1014" y="402" fill="#0f1728" font-size="22" font-weight="850">Ship</text>
    <rect x="1014" y="430" width="34" height="92" rx="11" fill="#f07955"/>
    <rect x="1022" y="444" width="18" height="10" rx="5" fill="#fff" opacity=".74"/>
    <rect x="1014" y="542" width="34" height="10" rx="5" fill="#94a3b8"/>
  </g>

  <rect x="350" y="620" width="730" height="42" rx="21" fill="#f1f5f9"/>
  <rect x="374" y="635" width="92" height="12" rx="6" fill="#7d5cf7"/>
  <rect x="496" y="635" width="146" height="12" rx="6" fill="#21c7a8"/>
  <rect x="672" y="635" width="118" height="12" rx="6" fill="#f7b84b"/>
  <rect x="820" y="635" width="206" height="12" rx="6" fill="#f07955"/>
</svg>
